<?xml version="1.0" encoding="utf-8"?>
<svg viewBox="4.2038 6.3883 111.1111 50" xmlns="http://www.w3.org/2000/svg">
  <g data-v-0dd9719b="" fill="#333" class="iconlettersvg-g iconlettersvg" transform="matrix(1, 0, 0, 1, 4.203756809234605, 6.388319969177246)">
    <g>
      <g class="tp-name">
        <g transform="scale(1)">
          <g transform="translate(0, 0)">
            <g class="name-imagesvg">
              <g>
                <rect fill="#333" fill-opacity="0" stroke-width="2" x="0" y="0" width="36.11111111111111" height="50" class="image-rect"/>
                <svg x="0" y="0" width="36.11111111111111" height="50" filtersec="colorsb981884379" class="image-svg-svg primary" style="overflow: visible;">
                  <svg xmlns="http://www.w3.org/2000/svg" viewBox="0 0 130 180">
                    <g fill="#ba9764">
                      <path opacity=".8" d="M130 40H0L40 0h50l40 40z"/>
                      <path opacity=".8" d="M90 0v130l40-40V40L90 0z"/>
                      <path opacity=".8" d="M0 90h130l-40 40H0V90z"/>
                      <path opacity=".8" d="M0 40v140h40V0L0 40z"/>
                    </g>
                  </svg>
                </svg>
              </g>
            </g>
          </g>
          <g transform="translate(36.11111111111111, 0)">
            <g class="name-imagesvg">
              <g>
                <rect fill="#333" fill-opacity="0" stroke-width="2" x="0" y="0" width="38.88888888888889" height="50" class="image-rect"/>
                <svg x="0" y="0" width="38.88888888888889" height="50" filtersec="colorsb8202756793" class="image-svg-svg primary" style="overflow: visible;">
                  <svg xmlns="http://www.w3.org/2000/svg" viewBox="0 0 140 180">
                    <g fill="#645faa">
                      <path opacity=".8" d="M140 40H0L40 0h60l40 40z"/>
                      <path opacity=".8" d="M100 0v180l40-40V40L100 0zM0 40v100l40 40V0L0 40z"/>
                      <path opacity=".8" d="M0 140h140l-40 40H40L0 140z"/>
                    </g>
                  </svg>
                </svg>
              </g>
            </g>
          </g>
          <g transform="translate(75, 0)">
            <g class="name-imagesvg">
              <g>
                <rect fill="#333" fill-opacity="0" stroke-width="2" x="0" y="0" width="36.11111111111111" height="50" class="image-rect"/>
                <svg x="0" y="0" width="36.11111111111111" height="50" filtersec="colorsb6598527824" class="image-svg-svg primary" style="overflow: visible;">
                  <svg xmlns="http://www.w3.org/2000/svg" viewBox="0 0 130 180">
                    <g fill="#f15a3f">
                      <path opacity=".8" d="M90 0v180l40-40V0H90zM0 0v140l40 40V0H0z"/>
                      <path opacity=".8" d="M0 140h130l-40 40H40L0 140z"/>
                    </g>
                  </svg>
                </svg>
              </g>
            </g>
          </g>
        </g>
      </g>
    </g>
  </g>
</svg>
